{
  "accessors": [
    {
      "bufferView": 2,
      "componentType": 5126,
      "count": 65532,
      "max": [
        186.08918762207031,
        570.23760986328125,
        196.9737548828125
      ],
      "min": [
        -165.46435546875,
        197.03298950195312,
        -167.68763732910156
      ],
      "type": "VEC3"
    },
    {
      "bufferView": 2,
      "byteOffset": 786384,
      "componentType": 5126,
      "count": 65532,
      "max": [
        0.99994742870330811,
        0.99999332427978516,
        0.99999541044235229
      ],
      "min": [
        -0.99998289346694946,
        -0.99999833106994629,
        -0.99998778104782104
      ],
      "type": "VEC3"
    },
    {
      "bufferView": 3,
      "componentType": 5126,
      "count": 65532,
      "max": [
        0.99999731779098511,
        0.99995940923690796,
        0.99996697902679443,
        1
      ],
      "min": [
        -0.99998146295547485,
        -0.76114219427108765,
        -0.99993735551834106,
        -1
      ],
      "type": "VEC4"
    },
    {
      "bufferView": 1,
      "componentType": 5126,
      "count": 65532,
      "max": [
        1,
        1
      ],
      "min": [
        0,
        0
      ],
      "type": "VEC2"
    },
    {
      "bufferView": 1,
      "byteOffset": 524256,
      "componentType": 5126,
      "count": 65532,
      "max": [
        1,
        1
      ],
      "min": [
        0,
        0
      ],
      "type": "VEC2"
    },
    {
      "bufferView": 0,
      "componentType": 5125,
      "count": 213462,
      "max": [
        65531
      ],
      "min": [
        0
      ],
      "type": "SCALAR"
    },
    {
      "bufferView": 2,
      "byteOffset": 1572768,
      "componentType": 5126,
      "count": 28832,
      "max": [
        159.95420837402344,
        639.44195556640625,
        160.83976745605469
      ],
      "min": [
        -138.17219543457031,
        273.54733276367188,
        -148.79603576660156
      ],
      "type": "VEC3"
    },
    {
      "bufferView": 2,
      "byteOffset": 1918752,
      "componentType": 5126,
      "count": 28832,
      "max": [
        0.99999415874481201,
        0.99999696016311646,
        0.99990403652191162
      ],
      "min": [
        -0.99997395277023315,
        -0.99999350309371948,
        -0.99982458353042603
      ],
      "type": "VEC3"
    },
    {
      "bufferView": 3,
      "byteOffset": 1048512,
      "componentType": 5126,
      "count": 28832,
      "max": [
        0.99999934434890747,
        0.99954068660736084,
        0.99997043609619141,
        1
      ],
      "min": [
        -0.99996662139892578,
        -0.76114219427108765,
        -0.99989563226699829,
        -1
      ],
      "type": "VEC4"
    },
    {
      "bufferView": 1,
      "byteOffset": 1048512,
      "componentType": 5126,
      "count": 28832,
      "max": [
        1,
        1
      ],
      "min": [
        0,
        0
      ],
      "type": "VEC2"
    },
    {
      "bufferView": 1,
      "byteOffset": 1279168,
      "componentType": 5126,
      "count": 28832,
      "max": [
        1,
        1
      ],
      "min": [
        0,
        0
      ],
      "type": "VEC2"
    },
    {
      "bufferView": 0,
      "byteOffset": 853848,
      "componentType": 5125,
      "count": 92292,
      "max": [
        28831
      ],
      "min": [
        0
      ],
      "type": "SCALAR"
    },
    {
      "bufferView": 2,
      "byteOffset": 2264736,
      "componentType": 5126,
      "count": 20484,
      "max": [
        160.75508117675781,
        625.6634521484375,
        157.70263671875
      ],
      "min": [
        -153.88371276855469,
        -6.3999996185302734,
        -137.21363830566406
      ],
      "type": "VEC3"
    },
    {
      "bufferView": 2,
      "byteOffset": 2510544,
      "componentType": 5126,
      "count": 20484,
      "max": [
        0.99997794628143311,
        0.99994802474975586,
        0.99999886751174927
      ],
      "min": [
        -0.99999600648880005,
        -0.99987959861755371,
        -0.99991691112518311
      ],
      "type": "VEC3"
    },
    {
      "bufferView": 3,
      "byteOffset": 1509824,
      "componentType": 5126,
      "count": 20484,
      "max": [
        0.99997639656066895,
        0.99977761507034302,
        0.99998182058334351,
        1
      ],
      "min": [
        -0.99995720386505127,
        -0.99993085861206055,
        -0.99998807907104492,
        -1
      ],
      "type": "VEC4"
    },
    {
      "bufferView": 1,
      "byteOffset": 1509824,
      "componentType": 5126,
      "count": 20484,
      "max": [
        11.029999732971191,
        10.511599540710449
      ],
      "min": [
        -1.3200000524520874,
        -11.671599388122559
      ],
      "type": "VEC2"
    },
    {
      "bufferView": 1,
      "byteOffset": 1673696,
      "componentType": 5126,
      "count": 20484,
      "max": [
        11.029999732971191,
        10.511599540710449
      ],
      "min": [
        -1.3200000524520874,
        -11.671599388122559
      ],
      "type": "VEC2"
    },
    {
      "bufferView": 0,
      "byteOffset": 1223016,
      "componentType": 5125,
      "count": 97548,
      "max": [
        20483
      ],
      "min": [
        0
      ],
      "type": "SCALAR"
    },
    {
      "bufferView": 2,
      "byteOffset": 2756352,
      "componentType": 5126,
      "count": 5405,
      "max": [
        169.42561340332031,
        629.42095947265625,
        177.81411743164062
      ],
      "min": [
        -147.1607666015625,
        229.73667907714844,
        -150.92498779296875
      ],
      "type": "VEC3"
    },
    {
      "bufferView": 2,
      "byteOffset": 2821212,
      "componentType": 5126,
      "count": 5405,
      "max": [
        0.99606674909591675,
        0.99944162368774414,
        0.99919551610946655
      ],
      "min": [
        -0.99618816375732422,
        -0.37843173742294312,
        -0.99695605039596558
      ],
      "type": "VEC3"
    },
    {
      "bufferView": 3,
      "byteOffset": 1837568,
      "componentType": 5126,
      "count": 5405,
      "max": [
        0.99908417463302612,
        0.98884660005569458,
        0.99949187040328979,
        1
      ],
      "min": [
        -0.99988788366317749,
        -0.98879098892211914,
        -0.99976879358291626,
        1
      ],
      "type": "VEC4"
    },
    {
      "bufferView": 1,
      "byteOffset": 1837568,
      "componentType": 5126,
      "count": 5405,
      "max": [
        0.89558494091033936,
        0.93999141454696655
      ],
      "min": [
        0.024388151243329048,
        0.047185145318508148
      ],
      "type": "VEC2"
    },
    {
      "bufferView": 1,
      "byteOffset": 1880808,
      "componentType": 5126,
      "count": 5405,
      "max": [
        0.89558494091033936,
        0.93999141454696655
      ],
      "min": [
        0.024388151243329048,
        0.047185145318508148
      ],
      "type": "VEC2"
    },
    {
      "bufferView": 0,
      "byteOffset": 1613208,
      "componentType": 5125,
      "count": 27456,
      "max": [
        5404
      ],
      "min": [
        0
      ],
      "type": "SCALAR"
    }
  ],
  "asset": {
    "extras": {
      "author": "Rodrigo Gelmi (https://sketchfab.com/rodrigogelmi)",
      "license": "CC-BY-4.0 (http://creativecommons.org/licenses/by/4.0/)",
      "source": "https://sketchfab.com/3d-models/platano-tree-ef48485b7c534acc905c0d9964c5fe7c",
      "title": "Platano Tree"
    },
    "generator": "Sketchfab-8.79.0",
    "version": "2.0"
  },
  "bufferViews": [
    {
      "buffer": 0,
      "byteLength": 1723032,
      "byteOffset": 0,
      "name": "floatBufferViews",
      "target": 34963
    },
    {
      "buffer": 0,
      "byteLength": 1924048,
      "byteOffset": 1723032,
      "byteStride": 8,
      "name": "floatBufferViews",
      "target": 34962
    },
    {
      "buffer": 0,
      "byteLength": 2886072,
      "byteOffset": 3647080,
      "byteStride": 12,
      "name": "floatBufferViews",
      "target": 34962
    },
    {
      "buffer": 0,
      "byteLength": 1924048,
      "byteOffset": 6533152,
      "byteStride": 16,
      "name": "floatBufferViews",
      "target": 34962
    }
  ],
  "buffers": [
    {
      "byteLength": 8457200,
      "uri": "scene.bin"
    }
  ],
  "extensionsRequired": [
    "KHR_materials_pbrSpecularGlossiness"
  ],
  "extensionsUsed": [
    "KHR_materials_pbrSpecularGlossiness"
  ],
  "images": [
    {
      "uri": "textures/leafs_Platano_diffuse.png"
    },
    {
      "uri": "textures/leafs_Platano_normal.png"
    },
    {
      "uri": "textures/Platano_Trunk_diffuse.jpeg"
    },
    {
      "uri": "textures/Platano_Trunk_normal.png"
    },
    {
      "uri": "textures/treetop_platano_diffuse.png"
    },
    {
      "uri": "textures/treetop_platano_normal.png"
    }
  ],
  "materials": [
    {
      "alphaMode": "BLEND",
      "doubleSided": true,
      "emissiveFactor": [
        0,
        0,
        0
      ],
      "extensions": {
        "KHR_materials_pbrSpecularGlossiness": {
          "diffuseFactor": [
            1,
            1,
            1,
            1
          ],
          "diffuseTexture": {
            "index": 0,
            "texCoord": 0
          },
          "glossinessFactor": 0.24491697523545472,
          "specularFactor": [
            0.098992819315494113,
            0.098992819315494113,
            0.098992819315494113
          ]
        }
      },
      "name": "leafs_Platano",
      "normalTexture": {
        "index": 1,
        "scale": 1,
        "texCoord": 0
      }
    },
    {
      "doubleSided": true,
      "emissiveFactor": [
        0,
        0,
        0
      ],
      "extensions": {
        "KHR_materials_pbrSpecularGlossiness": {
          "diffuseFactor": [
            1,
            1,
            1,
            1
          ],
          "diffuseTexture": {
            "index": 2,
            "texCoord": 0
          },
          "glossinessFactor": 0.40000000000000002,
          "specularFactor": [
            0,
            0,
            0
          ]
        }
      },
      "name": "Platano_Trunk",
      "normalTexture": {
        "index": 3,
        "scale": 1,
        "texCoord": 0
      }
    },
    {
      "alphaMode": "BLEND",
      "doubleSided": true,
      "emissiveFactor": [
        0,
        0,
        0
      ],
      "extensions": {
        "KHR_materials_pbrSpecularGlossiness": {
          "diffuseFactor": [
            1,
            1,
            1,
            1
          ],
          "diffuseTexture": {
            "index": 4,
            "texCoord": 0
          },
          "glossinessFactor": 0.17803507043880609,
          "specularFactor": [
            0.15371437778547933,
            0.15371437778547933,
            0.15371437778547933
          ]
        }
      },
      "name": "treetop_platano",
      "normalTexture": {
        "index": 5,
        "scale": 1,
        "texCoord": 0
      }
    }
  ],
  "meshes": [
    {
      "name": "Platano-Tree_leafs Platano_0",
      "primitives": [
        {
          "attributes": {
            "NORMAL": 1,
            "POSITION": 0,
            "TANGENT": 2,
            "TEXCOORD_0": 3,
            "TEXCOORD_1": 4
          },
          "indices": 5,
          "material": 0,
          "mode": 4
        }
      ]
    },
    {
      "name": "Platano-Tree_leafs Platano_0",
      "primitives": [
        {
          "attributes": {
            "NORMAL": 7,
            "POSITION": 6,
            "TANGENT": 8,
            "TEXCOORD_0": 9,
            "TEXCOORD_1": 10
          },
          "indices": 11,
          "material": 0,
          "mode": 4
        }
      ]
    },
    {
      "name": "Platano-Tree_Platano Trunk_0",
      "primitives": [
        {
          "attributes": {
            "NORMAL": 13,
            "POSITION": 12,
            "TANGENT": 14,
            "TEXCOORD_0": 15,
            "TEXCOORD_1": 16
          },
          "indices": 17,
          "material": 1,
          "mode": 4
        }
      ]
    },
    {
      "name": "Platano-Tree_treetop platano_0",
      "primitives": [
        {
          "attributes": {
            "NORMAL": 19,
            "POSITION": 18,
            "TANGENT": 20,
            "TEXCOORD_0": 21,
            "TEXCOORD_1": 22
          },
          "indices": 23,
          "material": 2,
          "mode": 4
        }
      ]
    }
  ],
  "nodes": [
    {
      "children": [
        1
      ],
      "name": "RootNode (gltf orientation matrix)",
      "rotation": [
        -0.70710678118654746,
        -0,
        -0,
        0.70710678118654757
      ]
    },
    {
      "children": [
        2
      ],
      "name": "RootNode (model correction matrix)"
    },
    {
      "children": [
        3
      ],
      "matrix": [
        1,
        0,
        0,
        0,
        0,
        0,
        1,
        0,
        0,
        -1,
        0,
        0,
        0,
        0,
        0,
        1
      ],
      "name": "f672f0698cc748bf94cf2c950cddca02.fbx"
    },
    {
      "children": [
        4,
        9,
        11
      ],
      "name": "RootNode"
    },
    {
      "children": [
        5,
        6,
        7,
        8
      ],
      "name": "Platano-Tree"
    },
    {
      "mesh": 0,
      "name": "Platano-Tree_leafs Platano_0"
    },
    {
      "mesh": 1,
      "name": "Platano-Tree_leafs Platano_0"
    },
    {
      "mesh": 2,
      "name": "Platano-Tree_Platano Trunk_0"
    },
    {
      "mesh": 3,
      "name": "Platano-Tree_treetop platano_0"
    },
    {
      "children": [
        10
      ],
      "matrix": [
        0.94443731730541547,
        -0.32524067184272765,
        0.047504305702126624,
        0,
        0.32459223628142309,
        0.94562099220327211,
        0.02099569599522743,
        0,
        -0.051749722963265972,
        -0.0044095899798430108,
        0.99865035006724701,
        0,
        -2064.457763671875,
        1166.0401611328125,
        -322.16595458984375,
        1
      ],
      "name": "Camera"
    },
    {
      "name": ""
    },
    {
      "children": [
        12
      ],
      "matrix": [
        0.74207699034026775,
        0.023033788898897234,
        0.66991878983686604,
        0,
        -0.63889047848174685,
        0.32671737620643126,
        0.69647305230723011,
        0,
        -0.20283169602627316,
        -0.94484136269203745,
        0.2571655156380015,
        0,
        -16757.28125,
        9246.5849609375,
        17783.96484375,
        1
      ],
      "name": "Directional Light"
    },
    {
      "children": [
        13
      ],
      "matrix": [
        1,
        0,
        0,
        0,
        0,
        2.2204460492503131e-16,
        1,
        0,
        0,
        -1,
        2.2204460492503131e-16,
        0,
        0,
        0,
        0,
        1
      ],
      "name": ""
    },
    {
      "name": ""
    }
  ],
  "samplers": [
    {
      "magFilter": 9729,
      "minFilter": 9987,
      "wrapS": 10497,
      "wrapT": 10497
    }
  ],
  "scene": 0,
  "scenes": [
    {
      "name": "OSG_Scene",
      "nodes": [
        0
      ]
    }
  ],
  "textures": [
    {
      "sampler": 0,
      "source": 0
    },
    {
      "sampler": 0,
      "source": 1
    },
    {
      "sampler": 0,
      "source": 2
    },
    {
      "sampler": 0,
      "source": 3
    },
    {
      "sampler": 0,
      "source": 4
    },
    {
      "sampler": 0,
      "source": 5
    }
  ]
}

